<svg width="23" height="22" viewBox="0 0 23 22" fill="none" xmlns="http://www.w3.org/2000/svg">
<circle r="11" transform="matrix(1 0 0 -1 11 11)" fill="#3EF5B4"/>
<circle r="10.5938" transform="matrix(1 0 0 -1 11.0312 10.9688)" fill="#1F1E1F"/>
<g clip-path="url(#clip0_4_29)">
<path d="M16.2953 11.4298C15.9804 11.7297 15.4801 11.7157 15.1778 11.3984C14.8754 11.081 14.8856 10.5806 15.2004 10.2807C15.5153 9.98067 16.0156 9.9947 16.3179 10.312C16.6202 10.6293 16.6101 11.1298 16.2953 11.4298Z" fill="white"/>
<path d="M17.3484 8.01475C15.7656 6.35352 13.141 6.27983 11.4927 7.85033C11.3161 8.01858 11.1679 8.20379 11.0375 8.38083C10.9991 8.43311 10.9446 8.45645 10.8959 8.45508L5.32108 8.29854C4.86004 8.28558 4.41414 8.45637 4.08154 8.77328L3.09116 9.71691C2.65038 10.1369 2.63619 10.8375 3.05947 11.2817L4.15433 12.4308C4.57761 12.8751 5.27806 12.8947 5.71884 12.4747L6.28892 11.9316L7.05532 12.7359C7.35767 13.0533 7.85796 13.0673 8.17282 12.7673L8.97092 12.0069L9.73733 12.8112C10.0329 13.1215 10.5177 13.1419 10.8334 12.8623C10.9927 13.1462 11.1874 13.42 11.4196 13.6637C13.0025 15.3249 15.6271 15.3986 17.2754 13.8281C18.9314 12.2503 18.9237 9.66811 17.3484 8.01475ZM12.1496 8.53978C13.4201 7.32926 15.4443 7.38609 16.6643 8.66655C17.8918 9.95487 17.8812 11.9355 16.6184 13.1387C15.348 14.3492 13.3238 14.2924 12.1037 13.0119C11.8062 12.6997 11.578 12.3039 11.4263 11.8996C11.37 11.7499 11.2426 11.638 11.0872 11.6016C10.9317 11.5651 10.7689 11.6091 10.654 11.7186L10.3119 12.0445L9.54552 11.2402C9.24321 10.9229 8.74289 10.9088 8.42802 11.2088L7.62992 11.9692L6.86351 11.1649C6.56117 10.8475 6.06087 10.8335 5.74601 11.1335L5.06192 11.7853C4.99894 11.8453 4.89889 11.8425 4.83842 11.779L3.74355 10.6299C3.68309 10.5665 3.6851 10.4664 3.74808 10.4064L4.73846 9.46273C4.88964 9.31869 5.09229 9.24108 5.30191 9.24693L10.8767 9.4035C11.2507 9.414 11.5915 9.23435 11.8028 8.94728C11.9188 8.78964 12.0299 8.6538 12.1496 8.53978Z" fill="white"/>
</g>
<defs>
<clipPath id="clip0_4_29">
<rect width="15.237" height="15.1183" fill="white" transform="translate(11.4954) rotate(46.3844)"/>
</clipPath>
</defs>
</svg>
