<svg width="20" height="20" viewBox="0 0 20 20" fill="none" xmlns="http://www.w3.org/2000/svg">
<rect x="1" y="2" width="16" height="16" rx="2" fill="#424242"/>
<g clip-path="url(#clip0_101_128)">
<path d="M14.0142 10.1731C13.734 10.4401 13.2886 10.4276 13.0196 10.1452C12.7505 9.86277 12.7595 9.41738 13.0397 9.15038C13.32 8.88338 13.7652 8.89587 14.0344 9.17831C14.3034 9.46072 14.2944 9.90614 14.0142 10.1731Z" fill="white"/>
<path d="M14.9515 7.13359C13.5427 5.655 11.2067 5.58941 9.7396 6.98725C9.58243 7.137 9.45051 7.30185 9.33452 7.45943C9.30027 7.50596 9.2518 7.52673 9.20846 7.52551L4.24654 7.38618C3.83618 7.37465 3.43931 7.52666 3.14327 7.80872L2.26178 8.64861C1.86946 9.02242 1.85683 9.64598 2.23357 10.0414L3.20807 11.0641C3.58481 11.4595 4.20825 11.477 4.60057 11.1032L5.10797 10.6198L5.79011 11.3357C6.05922 11.6182 6.5045 11.6307 6.78475 11.3636L7.4951 10.6868L8.17725 11.4028C8.44033 11.6789 8.8718 11.697 9.15283 11.4482C9.29457 11.7009 9.46789 11.9445 9.6746 12.1615C11.0834 13.6401 13.4195 13.7057 14.8865 12.3078C16.3605 10.9035 16.3537 8.60518 14.9515 7.13359ZM10.3243 7.60089C11.4551 6.52346 13.2568 6.57405 14.3427 7.71373C15.4352 8.86041 15.4258 10.6233 14.3018 11.6942C13.171 12.7716 11.3694 12.721 10.2835 11.5813C10.0187 11.3034 9.81556 10.9512 9.68049 10.5913C9.63044 10.4581 9.51706 10.3585 9.3787 10.3261C9.24031 10.2936 9.09545 10.3328 8.99312 10.4303L8.68868 10.7203L8.00653 10.0044C7.73745 9.72199 7.29214 9.70946 7.0119 9.97648L6.30154 10.6533L5.61939 9.93738C5.35029 9.65495 4.90499 9.64243 4.62475 9.90944L4.01587 10.4896C3.95981 10.543 3.87076 10.5405 3.81694 10.484L2.84245 9.46124C2.78863 9.40475 2.79042 9.31568 2.84648 9.26227L3.72797 8.42238C3.86253 8.29417 4.0429 8.22509 4.22947 8.2303L9.19134 8.36966C9.52427 8.37901 9.82758 8.2191 10.0156 7.96359C10.1189 7.82329 10.2178 7.70238 10.3243 7.60089Z" fill="white"/>
</g>
<defs>
<clipPath id="clip0_101_128">
<rect width="13.5618" height="13.4561" fill="white" transform="translate(9.74202) rotate(46.3844)"/>
</clipPath>
</defs>
</svg>
